<svg width="32" height="38" viewBox="0 0 32 38" fill="none" xmlns="http://www.w3.org/2000/svg">
<path d="M2.74367 16.5607V0.223363H6.15627V13.7129H13.076V16.5607H2.74367Z" fill="#090076"/>
<path d="M29.5401 8.39205C29.5401 10.1736 29.2064 11.6893 28.5391 12.9391C27.8771 14.1888 26.9734 15.1435 25.828 15.8029C24.6878 16.457 23.4058 16.7841 21.9819 16.7841C20.5475 16.7841 19.2602 16.4544 18.1201 15.7949C16.9799 15.1355 16.0788 14.1809 15.4168 12.9311C14.7548 11.6813 14.4237 10.1683 14.4237 8.39205C14.4237 6.61047 14.7548 5.0948 15.4168 3.84503C16.0788 2.59526 16.9799 1.64331 18.1201 0.989178C19.2602 0.329726 20.5475 0 21.9819 0C23.4058 0 24.6878 0.329726 25.828 0.989178C26.9734 1.64331 27.8771 2.59526 28.5391 3.84503C29.2064 5.0948 29.5401 6.61047 29.5401 8.39205ZM26.0802 8.39205C26.0802 7.23801 25.9094 6.26479 25.5679 5.47238C25.2316 4.67998 24.7561 4.07903 24.1414 3.66953C23.5266 3.26003 22.8068 3.05528 21.9819 3.05528C21.157 3.05528 20.4372 3.26003 19.8224 3.66953C19.2077 4.07903 18.7296 4.67998 18.388 5.47238C18.0518 6.26479 17.8836 7.23801 17.8836 8.39205C17.8836 9.54609 18.0518 10.5193 18.388 11.3117C18.7296 12.1041 19.2077 12.7051 19.8224 13.1146C20.4372 13.5241 21.157 13.7288 21.9819 13.7288C22.8068 13.7288 23.5266 13.5241 24.1414 13.1146C24.7561 12.7051 25.2316 12.1041 25.5679 11.3117C25.9094 10.5193 26.0802 9.54609 26.0802 8.39205Z" fill="#090076"/>
<path d="M10.9865 26.7202C10.8762 26.332 10.7212 25.9889 10.5215 25.6911C10.3219 25.388 10.0775 25.1327 9.78856 24.9253C9.50483 24.7126 9.17907 24.5504 8.81128 24.4387C8.44874 24.327 8.04679 24.2712 7.60544 24.2712C6.78053 24.2712 6.05546 24.4786 5.43021 24.8934C4.81021 25.3082 4.32683 25.9118 3.98005 26.7042C3.63327 27.4913 3.45989 28.4539 3.45989 29.592C3.45989 30.7301 3.63065 31.698 3.97217 32.4957C4.31369 33.2934 4.79708 33.9024 5.42233 34.3225C6.04757 34.7373 6.78579 34.9447 7.63697 34.9447C8.40933 34.9447 9.06874 34.8064 9.61517 34.5299C10.1669 34.248 10.5872 33.8518 10.8762 33.3413C11.1704 32.8308 11.3175 32.2271 11.3175 31.5305L12.0111 31.6342H7.84976V29.0336H14.604V31.0917C14.604 32.5276 14.3045 33.7614 13.7056 34.7932C13.1066 35.8196 12.2817 36.612 11.2308 37.1704C10.18 37.7235 8.97679 38 7.62121 38C6.108 38 4.77869 37.6623 3.63327 36.9869C2.48786 36.3062 1.59465 35.3409 0.953636 34.0912C0.317879 32.8361 0 31.347 0 29.6239C0 28.2997 0.189151 27.1191 0.567453 26.082C0.951009 25.0397 1.48694 24.1568 2.17524 23.4336C2.86353 22.7103 3.6648 22.1599 4.57903 21.7823C5.49326 21.4047 6.48367 21.2159 7.55027 21.2159C8.4645 21.2159 9.31568 21.3515 10.1038 21.6227C10.8919 21.8886 11.5907 22.2662 12.2002 22.7555C12.815 23.2448 13.3167 23.8271 13.7056 24.5025C14.0944 25.1726 14.3439 25.9118 14.4543 26.7202H10.9865Z" fill="#090076"/>
<path d="M32 29.6079C32 31.3895 31.6664 32.9052 30.9991 34.155C30.337 35.4047 29.4333 36.3594 28.2879 37.0188C27.1478 37.6729 25.8657 38 24.4418 38C23.0074 38 21.7202 37.6703 20.58 37.0108C19.4399 36.3514 18.5388 35.3968 17.8767 34.147C17.2147 32.8972 16.8837 31.3842 16.8837 29.6079C16.8837 27.8264 17.2147 26.3107 17.8767 25.0609C18.5388 23.8112 19.4399 22.8592 20.58 22.2051C21.7202 21.5456 23.0074 21.2159 24.4418 21.2159C25.8657 21.2159 27.1478 21.5456 28.2879 22.2051C29.4333 22.8592 30.337 23.8112 30.9991 25.0609C31.6664 26.3107 32 27.8264 32 29.6079ZM28.5401 29.6079C28.5401 28.4539 28.3694 27.4807 28.0278 26.6883C27.6916 25.8959 27.2161 25.2949 26.6013 24.8854C25.9866 24.4759 25.2668 24.2712 24.4418 24.2712C23.6169 24.2712 22.8971 24.4759 22.2824 24.8854C21.6676 25.2949 21.1895 25.8959 20.848 26.6883C20.5117 27.4807 20.3436 28.4539 20.3436 29.6079C20.3436 30.762 20.5117 31.7352 20.848 32.5276C21.1895 33.32 21.6676 33.921 22.2824 34.3305C22.8971 34.74 23.6169 34.9447 24.4418 34.9447C25.2668 34.9447 25.9866 34.74 26.6013 34.3305C27.2161 33.921 27.6916 33.32 28.0278 32.5276C28.3694 31.7352 28.5401 30.762 28.5401 29.6079Z" fill="#090076"/>
</svg>
